<mxfile host="app.diagrams.net" modified="2022-05-10T07:16:22.302Z" agent="5.0 (Windows NT 10.0; Win64; x64) AppleWebKit/537.36 (KHTML, like Gecko) Chrome/101.0.4951.54 Safari/537.36" etag="ygK846sKxeyuPLBfGefs" version="16.4.11" type="github">
  <diagram id="2RPdpxXCFyz0xVRLLAnb" name="Page-1">
    <mxGraphModel dx="2474" dy="1679" grid="1" gridSize="10" guides="1" tooltips="1" connect="1" arrows="1" fold="1" page="0" pageScale="1" pageWidth="827" pageHeight="1169" background="none" math="0" shadow="0">
      <root>
        <mxCell id="0" />
        <mxCell id="1" parent="0" />
        <mxCell id="TBF9zZiF4ZimvEeWQ7kE-50" value="" style="rounded=0;arcSize=10;whiteSpace=wrap;html=1;align=center;glass=0;shadow=0;" parent="1" vertex="1">
          <mxGeometry x="-740" y="305" width="910" height="460" as="geometry" />
        </mxCell>
        <mxCell id="AdZAlGOrFTd36PGD04gz-3" value="Recepcjonista" style="shape=umlActor;verticalLabelPosition=bottom;verticalAlign=top;html=1;outlineConnect=0;" parent="1" vertex="1">
          <mxGeometry x="730" y="-540" width="30" height="60" as="geometry" />
        </mxCell>
        <mxCell id="AdZAlGOrFTd36PGD04gz-8" value="logowanie się do systemu" style="ellipse;whiteSpace=wrap;html=1;" parent="1" vertex="1">
          <mxGeometry x="705" y="70" width="90" height="50" as="geometry" />
        </mxCell>
        <mxCell id="AdZAlGOrFTd36PGD04gz-10" value="zarządzanie wizytami/badaniami" style="ellipse;whiteSpace=wrap;html=1;" parent="1" vertex="1">
          <mxGeometry x="560" y="-510" width="120" height="60" as="geometry" />
        </mxCell>
        <mxCell id="AdZAlGOrFTd36PGD04gz-11" value="&lt;div&gt;&lt;span style=&quot;font-size: 16px ; background-color: rgb(255 , 255 , 255)&quot;&gt;ewidencja świadczeń NFZ&lt;/span&gt;&lt;/div&gt;" style="ellipse;whiteSpace=wrap;html=1;align=center;" parent="1" vertex="1">
          <mxGeometry x="660" y="-670" width="130" height="80" as="geometry" />
        </mxCell>
        <mxCell id="AdZAlGOrFTd36PGD04gz-12" value="realizacja płatności" style="ellipse;whiteSpace=wrap;html=1;" parent="1" vertex="1">
          <mxGeometry x="590" y="-425" width="120" height="60" as="geometry" />
        </mxCell>
        <mxCell id="AdZAlGOrFTd36PGD04gz-13" value="Pracownik medyczny&lt;br&gt;" style="shape=umlActor;verticalLabelPosition=bottom;verticalAlign=top;html=1;outlineConnect=0;" parent="1" vertex="1">
          <mxGeometry x="95" y="-520" width="30" height="60" as="geometry" />
        </mxCell>
        <mxCell id="AdZAlGOrFTd36PGD04gz-14" value="podgląd historii leczenia/wyników badań" style="ellipse;whiteSpace=wrap;html=1;" parent="1" vertex="1">
          <mxGeometry x="160" y="-560" width="120" height="60" as="geometry" />
        </mxCell>
        <mxCell id="AdZAlGOrFTd36PGD04gz-15" value="zarządzanie receptami/&lt;br&gt;skierowaniami" style="ellipse;whiteSpace=wrap;html=1;" parent="1" vertex="1">
          <mxGeometry x="170" y="-485" width="120" height="60" as="geometry" />
        </mxCell>
        <mxCell id="AdZAlGOrFTd36PGD04gz-16" value="zarządzanie historią leczenia/wyników badań" style="ellipse;whiteSpace=wrap;html=1;" parent="1" vertex="1">
          <mxGeometry x="160" y="-410" width="120" height="60" as="geometry" />
        </mxCell>
        <mxCell id="AdZAlGOrFTd36PGD04gz-17" value="dostęp do jednolitego systemu współpracy lekarzy" style="ellipse;whiteSpace=wrap;html=1;" parent="1" vertex="1">
          <mxGeometry x="40" y="-640" width="140" height="80" as="geometry" />
        </mxCell>
        <mxCell id="AdZAlGOrFTd36PGD04gz-20" value="Administrator" style="shape=umlActor;verticalLabelPosition=bottom;verticalAlign=top;html=1;outlineConnect=0;" parent="1" vertex="1">
          <mxGeometry x="705" y="-60" width="30" height="60" as="geometry" />
        </mxCell>
        <mxCell id="AdZAlGOrFTd36PGD04gz-21" value="tworzenie i zarządzanie kontami" style="ellipse;whiteSpace=wrap;html=1;" parent="1" vertex="1">
          <mxGeometry x="540" y="-100" width="120" height="60" as="geometry" />
        </mxCell>
        <mxCell id="AdZAlGOrFTd36PGD04gz-22" value="nadawanie uprawnień" style="ellipse;whiteSpace=wrap;html=1;" parent="1" vertex="1">
          <mxGeometry x="480" y="-30" width="120" height="60" as="geometry" />
        </mxCell>
        <mxCell id="AdZAlGOrFTd36PGD04gz-23" value="rejestrowanie i zarządzanie placówkami" style="ellipse;whiteSpace=wrap;html=1;" parent="1" vertex="1">
          <mxGeometry x="570" y="20" width="120" height="60" as="geometry" />
        </mxCell>
        <mxCell id="AdZAlGOrFTd36PGD04gz-24" value="zarządzanie wszystkimi funkcjami i informacjami w systemie" style="ellipse;whiteSpace=wrap;html=1;" parent="1" vertex="1">
          <mxGeometry x="650" y="-140" width="140" height="70" as="geometry" />
        </mxCell>
        <mxCell id="AdZAlGOrFTd36PGD04gz-25" value="Biuro" style="shape=umlActor;verticalLabelPosition=bottom;verticalAlign=top;html=1;outlineConnect=0;" parent="1" vertex="1">
          <mxGeometry x="120" y="-70" width="30" height="60" as="geometry" />
        </mxCell>
        <mxCell id="AdZAlGOrFTd36PGD04gz-26" value="zarządzanie finansami, księgowość" style="ellipse;whiteSpace=wrap;html=1;" parent="1" vertex="1">
          <mxGeometry x="180" y="-110" width="120" height="60" as="geometry" />
        </mxCell>
        <mxCell id="AdZAlGOrFTd36PGD04gz-27" value="zarządzanie zasobami ludzkimi" style="ellipse;whiteSpace=wrap;html=1;" parent="1" vertex="1">
          <mxGeometry x="190" y="-40" width="120" height="60" as="geometry" />
        </mxCell>
        <mxCell id="AdZAlGOrFTd36PGD04gz-28" value="zarządzanie magazynem" style="ellipse;whiteSpace=wrap;html=1;" parent="1" vertex="1">
          <mxGeometry x="170" y="30" width="120" height="60" as="geometry" />
        </mxCell>
        <mxCell id="AdZAlGOrFTd36PGD04gz-33" value="" style="endArrow=none;html=1;rounded=0;" parent="1" source="AdZAlGOrFTd36PGD04gz-26" target="AdZAlGOrFTd36PGD04gz-25" edge="1">
          <mxGeometry width="50" height="50" relative="1" as="geometry">
            <mxPoint x="450" y="-110" as="sourcePoint" />
            <mxPoint x="500" y="-160" as="targetPoint" />
          </mxGeometry>
        </mxCell>
        <mxCell id="AdZAlGOrFTd36PGD04gz-37" value="" style="endArrow=none;html=1;rounded=0;" parent="1" source="AdZAlGOrFTd36PGD04gz-13" target="AdZAlGOrFTd36PGD04gz-17" edge="1">
          <mxGeometry width="50" height="50" relative="1" as="geometry">
            <mxPoint x="450" y="-310" as="sourcePoint" />
            <mxPoint x="500" y="-360" as="targetPoint" />
          </mxGeometry>
        </mxCell>
        <mxCell id="AdZAlGOrFTd36PGD04gz-39" value="" style="endArrow=none;html=1;rounded=0;entryX=0.75;entryY=0.1;entryDx=0;entryDy=0;entryPerimeter=0;" parent="1" edge="1">
          <mxGeometry width="50" height="50" relative="1" as="geometry">
            <mxPoint x="172.75121074473736" y="-511.01979776388043" as="sourcePoint" />
            <mxPoint x="127.5" y="-504" as="targetPoint" />
          </mxGeometry>
        </mxCell>
        <mxCell id="AdZAlGOrFTd36PGD04gz-40" value="" style="endArrow=none;html=1;rounded=0;entryX=1;entryY=1;entryDx=0;entryDy=0;entryPerimeter=0;" parent="1" source="AdZAlGOrFTd36PGD04gz-15" target="AdZAlGOrFTd36PGD04gz-13" edge="1">
          <mxGeometry width="50" height="50" relative="1" as="geometry">
            <mxPoint x="450" y="-310" as="sourcePoint" />
            <mxPoint x="500" y="-360" as="targetPoint" />
          </mxGeometry>
        </mxCell>
        <mxCell id="AdZAlGOrFTd36PGD04gz-41" value="" style="endArrow=none;html=1;rounded=0;" parent="1" source="AdZAlGOrFTd36PGD04gz-16" target="AdZAlGOrFTd36PGD04gz-13" edge="1">
          <mxGeometry width="50" height="50" relative="1" as="geometry">
            <mxPoint x="450" y="-310" as="sourcePoint" />
            <mxPoint x="500" y="-360" as="targetPoint" />
          </mxGeometry>
        </mxCell>
        <mxCell id="AdZAlGOrFTd36PGD04gz-42" value="" style="endArrow=none;html=1;rounded=0;" parent="1" source="AdZAlGOrFTd36PGD04gz-25" target="AdZAlGOrFTd36PGD04gz-27" edge="1">
          <mxGeometry width="50" height="50" relative="1" as="geometry">
            <mxPoint x="450" y="-110" as="sourcePoint" />
            <mxPoint x="500" y="-160" as="targetPoint" />
          </mxGeometry>
        </mxCell>
        <mxCell id="AdZAlGOrFTd36PGD04gz-43" value="" style="endArrow=none;html=1;rounded=0;exitX=0.283;exitY=0.05;exitDx=0;exitDy=0;exitPerimeter=0;" parent="1" source="AdZAlGOrFTd36PGD04gz-28" target="AdZAlGOrFTd36PGD04gz-25" edge="1">
          <mxGeometry width="50" height="50" relative="1" as="geometry">
            <mxPoint x="450" y="-110" as="sourcePoint" />
            <mxPoint x="500" y="-160" as="targetPoint" />
          </mxGeometry>
        </mxCell>
        <mxCell id="AdZAlGOrFTd36PGD04gz-44" value="" style="endArrow=none;html=1;rounded=0;entryX=0.25;entryY=0.1;entryDx=0;entryDy=0;entryPerimeter=0;" parent="1" source="AdZAlGOrFTd36PGD04gz-21" target="AdZAlGOrFTd36PGD04gz-20" edge="1">
          <mxGeometry width="50" height="50" relative="1" as="geometry">
            <mxPoint x="450" y="-110" as="sourcePoint" />
            <mxPoint x="500" y="-160" as="targetPoint" />
          </mxGeometry>
        </mxCell>
        <mxCell id="AdZAlGOrFTd36PGD04gz-45" value="" style="endArrow=none;html=1;rounded=0;" parent="1" source="AdZAlGOrFTd36PGD04gz-22" target="AdZAlGOrFTd36PGD04gz-20" edge="1">
          <mxGeometry width="50" height="50" relative="1" as="geometry">
            <mxPoint x="450" y="-110" as="sourcePoint" />
            <mxPoint x="500" y="-160" as="targetPoint" />
          </mxGeometry>
        </mxCell>
        <mxCell id="AdZAlGOrFTd36PGD04gz-46" value="" style="endArrow=none;html=1;rounded=0;" parent="1" source="AdZAlGOrFTd36PGD04gz-23" target="AdZAlGOrFTd36PGD04gz-20" edge="1">
          <mxGeometry width="50" height="50" relative="1" as="geometry">
            <mxPoint x="450" y="-110" as="sourcePoint" />
            <mxPoint x="500" y="-160" as="targetPoint" />
          </mxGeometry>
        </mxCell>
        <mxCell id="AdZAlGOrFTd36PGD04gz-47" value="" style="endArrow=none;html=1;rounded=0;exitX=0.25;exitY=0.1;exitDx=0;exitDy=0;exitPerimeter=0;" parent="1" source="AdZAlGOrFTd36PGD04gz-20" target="AdZAlGOrFTd36PGD04gz-24" edge="1">
          <mxGeometry width="50" height="50" relative="1" as="geometry">
            <mxPoint x="450" y="-110" as="sourcePoint" />
            <mxPoint x="500" y="-160" as="targetPoint" />
          </mxGeometry>
        </mxCell>
        <mxCell id="AdZAlGOrFTd36PGD04gz-49" value="" style="endArrow=none;html=1;rounded=0;entryX=0.5;entryY=0.5;entryDx=0;entryDy=0;entryPerimeter=0;" parent="1" source="AdZAlGOrFTd36PGD04gz-10" target="AdZAlGOrFTd36PGD04gz-3" edge="1">
          <mxGeometry width="50" height="50" relative="1" as="geometry">
            <mxPoint x="450" y="-510" as="sourcePoint" />
            <mxPoint x="500" y="-560" as="targetPoint" />
          </mxGeometry>
        </mxCell>
        <mxCell id="AdZAlGOrFTd36PGD04gz-50" value="" style="endArrow=none;html=1;rounded=0;" parent="1" source="AdZAlGOrFTd36PGD04gz-12" target="AdZAlGOrFTd36PGD04gz-3" edge="1">
          <mxGeometry width="50" height="50" relative="1" as="geometry">
            <mxPoint x="450" y="-510" as="sourcePoint" />
            <mxPoint x="500" y="-560" as="targetPoint" />
          </mxGeometry>
        </mxCell>
        <mxCell id="AdZAlGOrFTd36PGD04gz-51" value="" style="endArrow=none;html=1;rounded=0;entryX=0.5;entryY=0;entryDx=0;entryDy=0;entryPerimeter=0;" parent="1" source="AdZAlGOrFTd36PGD04gz-11" target="AdZAlGOrFTd36PGD04gz-3" edge="1">
          <mxGeometry width="50" height="50" relative="1" as="geometry">
            <mxPoint x="450" y="-510" as="sourcePoint" />
            <mxPoint x="500" y="-560" as="targetPoint" />
          </mxGeometry>
        </mxCell>
        <mxCell id="lqnqc55kXV3MOIMBdHod-2" value="&lt;p class=&quot;MsoListParagraph&quot; style=&quot;text-indent: -18.0pt&quot;&gt;&lt;span style=&quot;font-size: 12.0pt ; line-height: 107% ; font-family: &amp;#34;symbol&amp;#34;&quot;&gt;&lt;span style=&quot;font-stretch: normal ; font-size: 7pt ; line-height: normal ; font-family: &amp;#34;times new roman&amp;#34;&quot;&gt;&amp;nbsp; &amp;nbsp;&amp;nbsp;&lt;/span&gt;&lt;/span&gt;&lt;span style=&quot;font-size: 12.0pt ; line-height: 107% ; font-family: &amp;#34;times new roman&amp;#34; , serif&quot;&gt;zapisywanie się na wizyty/badania&lt;/span&gt;&lt;/p&gt;" style="ellipse;whiteSpace=wrap;html=1;" parent="1" vertex="1">
          <mxGeometry x="1049" y="-480" width="160" height="70" as="geometry" />
        </mxCell>
        <mxCell id="lqnqc55kXV3MOIMBdHod-3" value="&lt;p class=&quot;MsoListParagraph&quot; style=&quot;text-indent: -18.0pt&quot;&gt;&lt;span style=&quot;line-height: 107%&quot;&gt;&lt;span style=&quot;font-stretch: normal ; line-height: normal ; font-size: 16px&quot;&gt;&lt;font face=&quot;Symbol&quot;&gt;&amp;nbsp;&lt;/font&gt;&lt;/span&gt;&lt;span style=&quot;font-family: &amp;#34;times new roman&amp;#34; ; font-size: 7pt ; font-stretch: normal ; line-height: normal&quot;&gt; &amp;nbsp;&lt;/span&gt;&lt;/span&gt;&lt;span style=&quot;font-size: 12.0pt ; line-height: 107% ; font-family: &amp;#34;times new roman&amp;#34; , serif&quot;&gt;podgląd do wyników badań&lt;/span&gt;&lt;/p&gt;" style="ellipse;whiteSpace=wrap;html=1;" parent="1" vertex="1">
          <mxGeometry x="950" y="-290" width="120" height="60" as="geometry" />
        </mxCell>
        <mxCell id="lqnqc55kXV3MOIMBdHod-4" value="zamówienia na recepty" style="ellipse;whiteSpace=wrap;html=1;" parent="1" vertex="1">
          <mxGeometry x="1250" y="-470" width="120" height="80" as="geometry" />
        </mxCell>
        <mxCell id="lqnqc55kXV3MOIMBdHod-5" value="płatność za wizyty" style="ellipse;whiteSpace=wrap;html=1;" parent="1" vertex="1">
          <mxGeometry x="960" y="-410" width="120" height="80" as="geometry" />
        </mxCell>
        <mxCell id="lqnqc55kXV3MOIMBdHod-6" value="integracja z systemem państwowym (profil zaufany)" style="ellipse;whiteSpace=wrap;html=1;" parent="1" vertex="1">
          <mxGeometry x="1290" y="-370" width="120" height="80" as="geometry" />
        </mxCell>
        <mxCell id="lqnqc55kXV3MOIMBdHod-7" value="nadawanie uprawnień dostępu do historii medycznej" style="ellipse;whiteSpace=wrap;html=1;" parent="1" vertex="1">
          <mxGeometry x="1104" y="-170" width="120" height="80" as="geometry" />
        </mxCell>
        <mxCell id="lqnqc55kXV3MOIMBdHod-8" value="&lt;p class=&quot;MsoListParagraph&quot; style=&quot;text-indent: -18.0pt&quot;&gt;&lt;span style=&quot;font-size: 12pt ; line-height: 107%&quot;&gt;&lt;font face=&quot;Symbol&quot;&gt;&amp;nbsp; &amp;nbsp; &amp;nbsp;&amp;nbsp;&lt;/font&gt;&lt;/span&gt;&lt;span style=&quot;font-size: 12.0pt ; line-height: 107% ; font-family: &amp;#34;times new roman&amp;#34; , serif&quot;&gt;dostęp do recept i skierowań&lt;/span&gt;&lt;/p&gt;" style="ellipse;whiteSpace=wrap;html=1;" parent="1" vertex="1">
          <mxGeometry x="1250" y="-180" width="120" height="80" as="geometry" />
        </mxCell>
        <mxCell id="lqnqc55kXV3MOIMBdHod-9" value="podgląd do historii leczenia" style="ellipse;whiteSpace=wrap;html=1;" parent="1" vertex="1">
          <mxGeometry x="980" y="-200" width="120" height="80" as="geometry" />
        </mxCell>
        <mxCell id="lqnqc55kXV3MOIMBdHod-10" value="realizowanie konsultacji online" style="ellipse;whiteSpace=wrap;html=1;" parent="1" vertex="1">
          <mxGeometry x="190" y="-690" width="120" height="80" as="geometry" />
        </mxCell>
        <mxCell id="lqnqc55kXV3MOIMBdHod-11" value="Pacjent&lt;br&gt;" style="shape=umlActor;verticalLabelPosition=bottom;verticalAlign=top;html=1;outlineConnect=0;" parent="1" vertex="1">
          <mxGeometry x="1160" y="-350" width="30" height="60" as="geometry" />
        </mxCell>
        <mxCell id="lqnqc55kXV3MOIMBdHod-25" value="wypełnianie karty obserwacji klinicznej" style="ellipse;whiteSpace=wrap;html=1;" parent="1" vertex="1">
          <mxGeometry x="30" y="-370" width="120" height="60" as="geometry" />
        </mxCell>
        <mxCell id="lqnqc55kXV3MOIMBdHod-27" value="" style="endArrow=none;html=1;rounded=0;" parent="1" target="lqnqc55kXV3MOIMBdHod-25" edge="1">
          <mxGeometry width="50" height="50" relative="1" as="geometry">
            <mxPoint x="108.769429489309" y="-476.77175430109105" as="sourcePoint" />
            <mxPoint x="371.24" y="-543.22" as="targetPoint" />
          </mxGeometry>
        </mxCell>
        <mxCell id="lqnqc55kXV3MOIMBdHod-30" value="" style="endArrow=none;html=1;rounded=0;fontFamily=Helvetica;" parent="1" source="AdZAlGOrFTd36PGD04gz-13" target="lqnqc55kXV3MOIMBdHod-10" edge="1">
          <mxGeometry width="50" height="50" relative="1" as="geometry">
            <mxPoint x="320" y="-810" as="sourcePoint" />
            <mxPoint x="370" y="-860" as="targetPoint" />
          </mxGeometry>
        </mxCell>
        <mxCell id="lqnqc55kXV3MOIMBdHod-34" value="realizowanie konsultacji online" style="ellipse;whiteSpace=wrap;html=1;" parent="1" vertex="1">
          <mxGeometry x="1280" y="-280" width="120" height="80" as="geometry" />
        </mxCell>
        <mxCell id="lqnqc55kXV3MOIMBdHod-35" value="logowanie się do systemu" style="ellipse;whiteSpace=wrap;html=1;" parent="1" vertex="1">
          <mxGeometry x="100" y="-150" width="90" height="50" as="geometry" />
        </mxCell>
        <mxCell id="lqnqc55kXV3MOIMBdHod-36" value="logowanie się do systemu" style="ellipse;whiteSpace=wrap;html=1;" parent="1" vertex="1">
          <mxGeometry y="-535" width="90" height="50" as="geometry" />
        </mxCell>
        <mxCell id="lqnqc55kXV3MOIMBdHod-37" value="logowanie się do systemu" style="ellipse;whiteSpace=wrap;html=1;" parent="1" vertex="1">
          <mxGeometry x="570" y="-610" width="90" height="50" as="geometry" />
        </mxCell>
        <mxCell id="TBF9zZiF4ZimvEeWQ7kE-1" value="" style="endArrow=none;html=1;rounded=0;" parent="1" target="AdZAlGOrFTd36PGD04gz-20" edge="1">
          <mxGeometry width="50" height="50" relative="1" as="geometry">
            <mxPoint x="759.9950592653554" y="80.0038206518675" as="sourcePoint" />
            <mxPoint x="805.54" y="39.473333333333585" as="targetPoint" />
          </mxGeometry>
        </mxCell>
        <mxCell id="TBF9zZiF4ZimvEeWQ7kE-2" value="" style="endArrow=none;html=1;rounded=0;" parent="1" source="lqnqc55kXV3MOIMBdHod-9" edge="1">
          <mxGeometry width="50" height="50" relative="1" as="geometry">
            <mxPoint x="1189.0850592653553" y="-209.9961793481325" as="sourcePoint" />
            <mxPoint x="1159.9973645883435" y="-290" as="targetPoint" />
          </mxGeometry>
        </mxCell>
        <mxCell id="TBF9zZiF4ZimvEeWQ7kE-3" value="" style="endArrow=none;html=1;rounded=0;" parent="1" source="lqnqc55kXV3MOIMBdHod-3" edge="1">
          <mxGeometry width="50" height="50" relative="1" as="geometry">
            <mxPoint x="1081.337464321506" y="-184.11069125261247" as="sourcePoint" />
            <mxPoint x="1150" y="-310" as="targetPoint" />
          </mxGeometry>
        </mxCell>
        <mxCell id="TBF9zZiF4ZimvEeWQ7kE-4" value="" style="endArrow=none;html=1;rounded=0;entryX=0;entryY=0.3333333333333333;entryDx=0;entryDy=0;entryPerimeter=0;" parent="1" source="lqnqc55kXV3MOIMBdHod-5" target="lqnqc55kXV3MOIMBdHod-11" edge="1">
          <mxGeometry width="50" height="50" relative="1" as="geometry">
            <mxPoint x="1068.9976436756547" y="-267.31495678763713" as="sourcePoint" />
            <mxPoint x="1160" y="-300" as="targetPoint" />
          </mxGeometry>
        </mxCell>
        <mxCell id="TBF9zZiF4ZimvEeWQ7kE-5" value="" style="endArrow=none;html=1;rounded=0;entryX=0.25;entryY=0.1;entryDx=0;entryDy=0;entryPerimeter=0;exitX=0.416;exitY=1.041;exitDx=0;exitDy=0;exitPerimeter=0;" parent="1" source="lqnqc55kXV3MOIMBdHod-2" target="lqnqc55kXV3MOIMBdHod-11" edge="1">
          <mxGeometry width="50" height="50" relative="1" as="geometry">
            <mxPoint x="1085.1487018010848" y="-344.24322805683323" as="sourcePoint" />
            <mxPoint x="1170" y="-320" as="targetPoint" />
          </mxGeometry>
        </mxCell>
        <mxCell id="TBF9zZiF4ZimvEeWQ7kE-6" value="" style="endArrow=none;html=1;rounded=0;entryX=0.75;entryY=0.1;entryDx=0;entryDy=0;entryPerimeter=0;" parent="1" source="lqnqc55kXV3MOIMBdHod-4" target="lqnqc55kXV3MOIMBdHod-11" edge="1">
          <mxGeometry width="50" height="50" relative="1" as="geometry">
            <mxPoint x="1125.56" y="-397.1300000000001" as="sourcePoint" />
            <mxPoint x="1177.5" y="-334" as="targetPoint" />
          </mxGeometry>
        </mxCell>
        <mxCell id="TBF9zZiF4ZimvEeWQ7kE-7" value="" style="endArrow=none;html=1;rounded=0;exitX=0.588;exitY=-0.017;exitDx=0;exitDy=0;exitPerimeter=0;" parent="1" source="lqnqc55kXV3MOIMBdHod-7" target="lqnqc55kXV3MOIMBdHod-11" edge="1">
          <mxGeometry width="50" height="50" relative="1" as="geometry">
            <mxPoint x="1275.1940877187453" y="-393.3964895830052" as="sourcePoint" />
            <mxPoint x="1185" y="-340" as="targetPoint" />
          </mxGeometry>
        </mxCell>
        <mxCell id="TBF9zZiF4ZimvEeWQ7kE-9" value="" style="endArrow=none;html=1;rounded=0;exitX=0;exitY=0;exitDx=0;exitDy=0;entryX=1;entryY=1;entryDx=0;entryDy=0;entryPerimeter=0;" parent="1" source="lqnqc55kXV3MOIMBdHod-8" target="lqnqc55kXV3MOIMBdHod-11" edge="1">
          <mxGeometry width="50" height="50" relative="1" as="geometry">
            <mxPoint x="1184.56" y="-161.3599999999999" as="sourcePoint" />
            <mxPoint x="1184.9111948331542" y="-280" as="targetPoint" />
          </mxGeometry>
        </mxCell>
        <mxCell id="TBF9zZiF4ZimvEeWQ7kE-10" value="" style="endArrow=none;html=1;rounded=0;entryX=0.5;entryY=0.5;entryDx=0;entryDy=0;entryPerimeter=0;" parent="1" source="lqnqc55kXV3MOIMBdHod-34" target="lqnqc55kXV3MOIMBdHod-11" edge="1">
          <mxGeometry width="50" height="50" relative="1" as="geometry">
            <mxPoint x="1277.57359312882" y="-158.2842712474535" as="sourcePoint" />
            <mxPoint x="1200" y="-280" as="targetPoint" />
          </mxGeometry>
        </mxCell>
        <mxCell id="TBF9zZiF4ZimvEeWQ7kE-11" value="" style="endArrow=none;html=1;rounded=0;" parent="1" source="lqnqc55kXV3MOIMBdHod-6" target="lqnqc55kXV3MOIMBdHod-11" edge="1">
          <mxGeometry width="50" height="50" relative="1" as="geometry">
            <mxPoint x="1301.5565326644878" y="-253.60066357371102" as="sourcePoint" />
            <mxPoint x="1185" y="-310" as="targetPoint" />
          </mxGeometry>
        </mxCell>
        <mxCell id="TBF9zZiF4ZimvEeWQ7kE-12" value="" style="ellipse;html=1;shape=startState;fillColor=#000000;strokeColor=#ff0000;" parent="1" vertex="1">
          <mxGeometry x="-680" y="535" width="30" height="30" as="geometry" />
        </mxCell>
        <mxCell id="TBF9zZiF4ZimvEeWQ7kE-13" value="" style="edgeStyle=orthogonalEdgeStyle;html=1;verticalAlign=bottom;endArrow=open;endSize=8;strokeColor=#ff0000;rounded=0;" parent="1" source="TBF9zZiF4ZimvEeWQ7kE-12" edge="1">
          <mxGeometry relative="1" as="geometry">
            <mxPoint x="-540" y="550" as="targetPoint" />
          </mxGeometry>
        </mxCell>
        <mxCell id="TBF9zZiF4ZimvEeWQ7kE-52" style="edgeStyle=orthogonalEdgeStyle;rounded=0;orthogonalLoop=1;jettySize=auto;html=1;entryX=0;entryY=0.75;entryDx=0;entryDy=0;exitX=0.475;exitY=0.424;exitDx=0;exitDy=0;exitPerimeter=0;" parent="1" source="TBF9zZiF4ZimvEeWQ7kE-14" target="TBF9zZiF4ZimvEeWQ7kE-34" edge="1">
          <mxGeometry relative="1" as="geometry">
            <Array as="points">
              <mxPoint x="-500" y="544" />
            </Array>
          </mxGeometry>
        </mxCell>
        <mxCell id="TBF9zZiF4ZimvEeWQ7kE-14" value="" style="line;strokeWidth=11;fillColor=none;align=left;verticalAlign=middle;spacingTop=-1;spacingLeft=3;spacingRight=3;rotatable=0;labelPosition=right;points=[];portConstraint=eastwest;direction=south;" parent="1" vertex="1">
          <mxGeometry x="-530" y="435" width="25" height="230" as="geometry" />
        </mxCell>
        <mxCell id="TBF9zZiF4ZimvEeWQ7kE-23" value="Recepcjonista" style="shape=umlActor;verticalLabelPosition=bottom;verticalAlign=top;html=1;outlineConnect=0;" parent="1" vertex="1">
          <mxGeometry x="780" y="330" width="30" height="60" as="geometry" />
        </mxCell>
        <mxCell id="TBF9zZiF4ZimvEeWQ7kE-24" value="zarządzanie wizytami/badaniami" style="ellipse;whiteSpace=wrap;html=1;" parent="1" vertex="1">
          <mxGeometry x="610" y="360" width="120" height="60" as="geometry" />
        </mxCell>
        <mxCell id="TBF9zZiF4ZimvEeWQ7kE-25" value="&lt;div&gt;&lt;span style=&quot;font-size: 16px ; background-color: rgb(255 , 255 , 255)&quot;&gt;ewidencja świadczeń NFZ&lt;/span&gt;&lt;/div&gt;" style="ellipse;whiteSpace=wrap;html=1;align=center;" parent="1" vertex="1">
          <mxGeometry x="710" y="200" width="130" height="80" as="geometry" />
        </mxCell>
        <mxCell id="TBF9zZiF4ZimvEeWQ7kE-26" value="realizacja płatności" style="ellipse;whiteSpace=wrap;html=1;" parent="1" vertex="1">
          <mxGeometry x="640" y="445" width="120" height="60" as="geometry" />
        </mxCell>
        <mxCell id="TBF9zZiF4ZimvEeWQ7kE-27" value="" style="endArrow=none;html=1;rounded=0;entryX=0.5;entryY=0.5;entryDx=0;entryDy=0;entryPerimeter=0;" parent="1" source="TBF9zZiF4ZimvEeWQ7kE-24" target="TBF9zZiF4ZimvEeWQ7kE-23" edge="1">
          <mxGeometry width="50" height="50" relative="1" as="geometry">
            <mxPoint x="500" y="360" as="sourcePoint" />
            <mxPoint x="550" y="310" as="targetPoint" />
          </mxGeometry>
        </mxCell>
        <mxCell id="TBF9zZiF4ZimvEeWQ7kE-28" value="" style="endArrow=none;html=1;rounded=0;" parent="1" source="TBF9zZiF4ZimvEeWQ7kE-26" edge="1">
          <mxGeometry width="50" height="50" relative="1" as="geometry">
            <mxPoint x="500" y="360" as="sourcePoint" />
            <mxPoint x="795" y="400" as="targetPoint" />
          </mxGeometry>
        </mxCell>
        <mxCell id="TBF9zZiF4ZimvEeWQ7kE-29" value="" style="endArrow=none;html=1;rounded=0;entryX=0.5;entryY=0;entryDx=0;entryDy=0;entryPerimeter=0;" parent="1" source="TBF9zZiF4ZimvEeWQ7kE-25" target="TBF9zZiF4ZimvEeWQ7kE-23" edge="1">
          <mxGeometry width="50" height="50" relative="1" as="geometry">
            <mxPoint x="500" y="360" as="sourcePoint" />
            <mxPoint x="550" y="310" as="targetPoint" />
          </mxGeometry>
        </mxCell>
        <mxCell id="TBF9zZiF4ZimvEeWQ7kE-30" value="logowanie się do systemu" style="ellipse;whiteSpace=wrap;html=1;" parent="1" vertex="1">
          <mxGeometry x="620" y="260" width="90" height="50" as="geometry" />
        </mxCell>
        <mxCell id="TBF9zZiF4ZimvEeWQ7kE-31" value="UC: Logowanie&amp;nbsp; do systemu" style="text;html=1;align=center;verticalAlign=middle;resizable=0;points=[];autosize=1;strokeColor=none;fillColor=none;" parent="1" vertex="1">
          <mxGeometry x="-725" y="365" width="170" height="20" as="geometry" />
        </mxCell>
        <mxCell id="TBF9zZiF4ZimvEeWQ7kE-47" style="edgeStyle=orthogonalEdgeStyle;rounded=0;orthogonalLoop=1;jettySize=auto;html=1;entryX=0.084;entryY=0.526;entryDx=0;entryDy=0;entryPerimeter=0;" parent="1" source="TBF9zZiF4ZimvEeWQ7kE-33" target="TBF9zZiF4ZimvEeWQ7kE-35" edge="1">
          <mxGeometry relative="1" as="geometry" />
        </mxCell>
        <mxCell id="TBF9zZiF4ZimvEeWQ7kE-33" value="wprowadzenie loginu" style="rounded=1;arcSize=10;whiteSpace=wrap;html=1;align=center;" parent="1" vertex="1">
          <mxGeometry x="-466" y="435" width="100" height="40" as="geometry" />
        </mxCell>
        <mxCell id="TBF9zZiF4ZimvEeWQ7kE-46" style="edgeStyle=orthogonalEdgeStyle;rounded=0;orthogonalLoop=1;jettySize=auto;html=1;entryX=0.435;entryY=0.6;entryDx=0;entryDy=0;entryPerimeter=0;" parent="1" source="TBF9zZiF4ZimvEeWQ7kE-34" target="TBF9zZiF4ZimvEeWQ7kE-35" edge="1">
          <mxGeometry relative="1" as="geometry" />
        </mxCell>
        <mxCell id="TBF9zZiF4ZimvEeWQ7kE-34" value="wprowadzenie hasła" style="rounded=1;arcSize=10;whiteSpace=wrap;html=1;align=center;" parent="1" vertex="1">
          <mxGeometry x="-466" y="515" width="100" height="40" as="geometry" />
        </mxCell>
        <mxCell id="TBF9zZiF4ZimvEeWQ7kE-48" style="edgeStyle=orthogonalEdgeStyle;rounded=0;orthogonalLoop=1;jettySize=auto;html=1;entryX=0;entryY=0.5;entryDx=0;entryDy=0;" parent="1" source="TBF9zZiF4ZimvEeWQ7kE-35" target="TBF9zZiF4ZimvEeWQ7kE-36" edge="1">
          <mxGeometry relative="1" as="geometry" />
        </mxCell>
        <mxCell id="TBF9zZiF4ZimvEeWQ7kE-35" value="" style="line;strokeWidth=11;fillColor=none;align=left;verticalAlign=middle;spacingTop=-1;spacingLeft=3;spacingRight=3;rotatable=0;labelPosition=right;points=[];portConstraint=eastwest;direction=south;" parent="1" vertex="1">
          <mxGeometry x="-220" y="435" width="25" height="230" as="geometry" />
        </mxCell>
        <mxCell id="TBF9zZiF4ZimvEeWQ7kE-39" style="edgeStyle=orthogonalEdgeStyle;rounded=0;orthogonalLoop=1;jettySize=auto;html=1;entryX=0.609;entryY=0.6;entryDx=0;entryDy=0;entryPerimeter=0;" parent="1" source="TBF9zZiF4ZimvEeWQ7kE-36" target="TBF9zZiF4ZimvEeWQ7kE-14" edge="1">
          <mxGeometry relative="1" as="geometry">
            <Array as="points">
              <mxPoint x="-80" y="735" />
              <mxPoint x="-665" y="735" />
              <mxPoint x="-665" y="575" />
            </Array>
          </mxGeometry>
        </mxCell>
        <mxCell id="TBF9zZiF4ZimvEeWQ7kE-40" value="Hasło niepoprawne" style="edgeLabel;html=1;align=center;verticalAlign=middle;resizable=0;points=[];" parent="TBF9zZiF4ZimvEeWQ7kE-39" vertex="1" connectable="0">
          <mxGeometry x="-0.1396" y="-2" relative="1" as="geometry">
            <mxPoint as="offset" />
          </mxGeometry>
        </mxCell>
        <mxCell id="TBF9zZiF4ZimvEeWQ7kE-41" style="edgeStyle=orthogonalEdgeStyle;rounded=0;orthogonalLoop=1;jettySize=auto;html=1;" parent="1" source="TBF9zZiF4ZimvEeWQ7kE-36" target="TBF9zZiF4ZimvEeWQ7kE-38" edge="1">
          <mxGeometry relative="1" as="geometry" />
        </mxCell>
        <mxCell id="TBF9zZiF4ZimvEeWQ7kE-43" value="Poprawne" style="edgeLabel;html=1;align=center;verticalAlign=middle;resizable=0;points=[];" parent="TBF9zZiF4ZimvEeWQ7kE-41" vertex="1" connectable="0">
          <mxGeometry x="0.18" y="-3" relative="1" as="geometry">
            <mxPoint as="offset" />
          </mxGeometry>
        </mxCell>
        <mxCell id="TBF9zZiF4ZimvEeWQ7kE-44" style="edgeStyle=orthogonalEdgeStyle;rounded=0;orthogonalLoop=1;jettySize=auto;html=1;entryX=0.5;entryY=1;entryDx=0;entryDy=0;" parent="1" source="TBF9zZiF4ZimvEeWQ7kE-36" target="TBF9zZiF4ZimvEeWQ7kE-37" edge="1">
          <mxGeometry relative="1" as="geometry" />
        </mxCell>
        <mxCell id="TBF9zZiF4ZimvEeWQ7kE-45" value="n &amp;gt; 5&amp;nbsp;" style="edgeLabel;html=1;align=center;verticalAlign=middle;resizable=0;points=[];" parent="TBF9zZiF4ZimvEeWQ7kE-44" vertex="1" connectable="0">
          <mxGeometry x="0.3" y="2" relative="1" as="geometry">
            <mxPoint as="offset" />
          </mxGeometry>
        </mxCell>
        <mxCell id="TBF9zZiF4ZimvEeWQ7kE-36" value="liczba prób" style="shape=rhombus;perimeter=rhombusPerimeter;whiteSpace=wrap;html=1;align=center;" parent="1" vertex="1">
          <mxGeometry x="-130" y="520" width="100" height="60" as="geometry" />
        </mxCell>
        <mxCell id="TBF9zZiF4ZimvEeWQ7kE-37" value="" style="ellipse;html=1;shape=endState;fillColor=#000000;strokeColor=#ff0000;" parent="1" vertex="1">
          <mxGeometry x="-95" y="385" width="30" height="30" as="geometry" />
        </mxCell>
        <mxCell id="TBF9zZiF4ZimvEeWQ7kE-38" value="" style="ellipse;html=1;shape=endState;fillColor=#000000;strokeColor=#ff0000;" parent="1" vertex="1">
          <mxGeometry x="70" y="535" width="30" height="30" as="geometry" />
        </mxCell>
        <mxCell id="TBF9zZiF4ZimvEeWQ7kE-49" value="Pacjent&lt;br&gt;Recepcjonista&lt;br&gt;Administrator&lt;br&gt;Biuro&lt;br&gt;Pracownik medyczny&lt;br&gt;" style="text;html=1;align=center;verticalAlign=middle;resizable=0;points=[];autosize=1;strokeColor=none;fillColor=none;" parent="1" vertex="1">
          <mxGeometry y="335" width="130" height="80" as="geometry" />
        </mxCell>
        <mxCell id="TBF9zZiF4ZimvEeWQ7kE-54" style="edgeStyle=orthogonalEdgeStyle;rounded=0;orthogonalLoop=1;jettySize=auto;html=1;exitX=0.086;exitY=0.448;exitDx=0;exitDy=0;exitPerimeter=0;" parent="1" source="TBF9zZiF4ZimvEeWQ7kE-14" edge="1">
          <mxGeometry relative="1" as="geometry">
            <mxPoint x="-510" y="454.85" as="sourcePoint" />
            <mxPoint x="-460" y="455" as="targetPoint" />
            <Array as="points">
              <mxPoint x="-465" y="455" />
            </Array>
          </mxGeometry>
        </mxCell>
        <mxCell id="TBF9zZiF4ZimvEeWQ7kE-60" style="edgeStyle=orthogonalEdgeStyle;rounded=0;orthogonalLoop=1;jettySize=auto;html=1;" parent="1" edge="1">
          <mxGeometry relative="1" as="geometry">
            <mxPoint x="900.0000000000005" y="785" as="targetPoint" />
            <mxPoint x="795" y="785" as="sourcePoint" />
          </mxGeometry>
        </mxCell>
        <mxCell id="TBF9zZiF4ZimvEeWQ7kE-64" style="edgeStyle=orthogonalEdgeStyle;rounded=0;orthogonalLoop=1;jettySize=auto;html=1;entryX=0.5;entryY=0;entryDx=0;entryDy=0;" parent="1" source="TBF9zZiF4ZimvEeWQ7kE-62" target="TBF9zZiF4ZimvEeWQ7kE-63" edge="1">
          <mxGeometry relative="1" as="geometry" />
        </mxCell>
        <mxCell id="TBF9zZiF4ZimvEeWQ7kE-62" value="zapisanie się na wizytę/badanie" style="rounded=1;arcSize=10;whiteSpace=wrap;html=1;align=center;" parent="1" vertex="1">
          <mxGeometry x="900" y="765" width="100" height="40" as="geometry" />
        </mxCell>
        <mxCell id="TBF9zZiF4ZimvEeWQ7kE-71" style="edgeStyle=orthogonalEdgeStyle;rounded=0;orthogonalLoop=1;jettySize=auto;html=1;entryX=0.5;entryY=0;entryDx=0;entryDy=0;" parent="1" source="TBF9zZiF4ZimvEeWQ7kE-66" target="TBF9zZiF4ZimvEeWQ7kE-70" edge="1">
          <mxGeometry relative="1" as="geometry" />
        </mxCell>
        <mxCell id="TBF9zZiF4ZimvEeWQ7kE-66" value="edytowanie &lt;br&gt;wizyty" style="rounded=1;arcSize=10;whiteSpace=wrap;html=1;align=center;" parent="1" vertex="1">
          <mxGeometry x="950" y="910" width="100" height="40" as="geometry" />
        </mxCell>
        <mxCell id="TBF9zZiF4ZimvEeWQ7kE-67" style="edgeStyle=orthogonalEdgeStyle;rounded=0;orthogonalLoop=1;jettySize=auto;html=1;" parent="1" source="TBF9zZiF4ZimvEeWQ7kE-63" target="TBF9zZiF4ZimvEeWQ7kE-66" edge="1">
          <mxGeometry relative="1" as="geometry">
            <mxPoint x="984.977037037037" y="910" as="sourcePoint" />
            <mxPoint x="1010" y="930" as="targetPoint" />
            <Array as="points">
              <mxPoint x="1000" y="940" />
              <mxPoint x="1000" y="940" />
            </Array>
          </mxGeometry>
        </mxCell>
        <mxCell id="TBF9zZiF4ZimvEeWQ7kE-68" value="" style="line;strokeWidth=1;fillColor=none;align=left;verticalAlign=middle;spacingTop=-1;spacingLeft=3;spacingRight=3;rotatable=0;labelPosition=right;points=[];portConstraint=eastwest;rounded=0;shadow=0;glass=0;" parent="1" vertex="1">
          <mxGeometry x="757.5" y="861" width="505" height="8" as="geometry" />
        </mxCell>
        <mxCell id="TBF9zZiF4ZimvEeWQ7kE-63" value="wizyta&lt;br&gt;&lt;font style=&quot;font-size: 8px&quot;&gt;[zarejestrowana]&lt;/font&gt;" style="rounded=1;arcSize=10;whiteSpace=wrap;html=1;align=center;" parent="1" vertex="1">
          <mxGeometry x="950" y="845" width="100" height="40" as="geometry" />
        </mxCell>
        <mxCell id="TBF9zZiF4ZimvEeWQ7kE-69" value="" style="line;strokeWidth=1;fillColor=none;align=left;verticalAlign=middle;spacingTop=-1;spacingLeft=3;spacingRight=3;rotatable=0;labelPosition=right;points=[];portConstraint=eastwest;rounded=0;shadow=0;glass=0;" parent="1" vertex="1">
          <mxGeometry x="767.5" y="1020" width="505" height="8" as="geometry" />
        </mxCell>
        <mxCell id="TBF9zZiF4ZimvEeWQ7kE-70" value="wizyta&lt;br&gt;&lt;font style=&quot;font-size: 8px&quot;&gt;[w trakcie realizacji]&lt;/font&gt;" style="rounded=1;arcSize=10;whiteSpace=wrap;html=1;align=center;" parent="1" vertex="1">
          <mxGeometry x="1020" y="975" width="100" height="40" as="geometry" />
        </mxCell>
        <mxCell id="TBF9zZiF4ZimvEeWQ7kE-72" style="edgeStyle=orthogonalEdgeStyle;rounded=0;orthogonalLoop=1;jettySize=auto;html=1;entryX=0.5;entryY=0;entryDx=0;entryDy=0;exitX=0.5;exitY=1;exitDx=0;exitDy=0;" parent="1" source="TBF9zZiF4ZimvEeWQ7kE-70" target="TBF9zZiF4ZimvEeWQ7kE-73" edge="1">
          <mxGeometry relative="1" as="geometry">
            <mxPoint x="1069.997037037037" y="1060" as="sourcePoint" />
            <mxPoint x="1139.9600000000005" y="1104" as="targetPoint" />
          </mxGeometry>
        </mxCell>
        <mxCell id="TBF9zZiF4ZimvEeWQ7kE-73" value="wypełnienie karty obserwacji klinicznej" style="rounded=1;arcSize=10;whiteSpace=wrap;html=1;align=center;" parent="1" vertex="1">
          <mxGeometry x="1090" y="1110" width="110" height="50" as="geometry" />
        </mxCell>
        <mxCell id="TBF9zZiF4ZimvEeWQ7kE-74" value="" style="ellipse;html=1;shape=startState;fillColor=#000000;strokeColor=#ff0000;" parent="1" vertex="1">
          <mxGeometry x="767.5" y="770" width="30" height="30" as="geometry" />
        </mxCell>
        <mxCell id="TBF9zZiF4ZimvEeWQ7kE-81" value="Pool" style="swimlane;childLayout=stackLayout;resizeParent=1;resizeParentMax=0;startSize=20;horizontal=0;horizontalStack=1;rounded=0;shadow=0;glass=0;fontSize=8;strokeWidth=1;" parent="1" vertex="1">
          <mxGeometry x="890" y="700" width="260" height="480" as="geometry" />
        </mxCell>
        <mxCell id="TBF9zZiF4ZimvEeWQ7kE-82" value="Lane 1" style="swimlane;startSize=20;rounded=0;shadow=0;glass=0;fontSize=8;strokeWidth=1;" parent="TBF9zZiF4ZimvEeWQ7kE-81" vertex="1">
          <mxGeometry x="20" width="120" height="480" as="geometry" />
        </mxCell>
        <mxCell id="TBF9zZiF4ZimvEeWQ7kE-83" value="Lane 2" style="swimlane;startSize=20;rounded=0;shadow=0;glass=0;fontSize=8;strokeWidth=1;" parent="TBF9zZiF4ZimvEeWQ7kE-81" vertex="1">
          <mxGeometry x="140" width="120" height="480" as="geometry" />
        </mxCell>
        <mxCell id="jCBHO14BRQy6ftBjEHN5-1" value="" style="ellipse;html=1;shape=startState;fillColor=#000000;strokeColor=#ff0000;" vertex="1" parent="1">
          <mxGeometry x="-655" y="1260" width="30" height="30" as="geometry" />
        </mxCell>
        <mxCell id="jCBHO14BRQy6ftBjEHN5-2" value="" style="edgeStyle=orthogonalEdgeStyle;html=1;verticalAlign=bottom;endArrow=open;endSize=8;strokeColor=#ff0000;rounded=0;exitX=1;exitY=0.5;exitDx=0;exitDy=0;" edge="1" parent="1" source="jCBHO14BRQy6ftBjEHN5-1" target="jCBHO14BRQy6ftBjEHN5-3">
          <mxGeometry relative="1" as="geometry">
            <mxPoint x="-505" y="1275" as="targetPoint" />
            <mxPoint x="-615" y="1274.71" as="sourcePoint" />
            <Array as="points">
              <mxPoint x="-550" y="1275" />
              <mxPoint x="-550" y="1275" />
            </Array>
          </mxGeometry>
        </mxCell>
        <mxCell id="jCBHO14BRQy6ftBjEHN5-7" style="edgeStyle=orthogonalEdgeStyle;rounded=0;orthogonalLoop=1;jettySize=auto;html=1;entryX=0;entryY=0.5;entryDx=0;entryDy=0;" edge="1" parent="1" target="jCBHO14BRQy6ftBjEHN5-6">
          <mxGeometry relative="1" as="geometry">
            <mxPoint x="-460" y="1215" as="sourcePoint" />
          </mxGeometry>
        </mxCell>
        <mxCell id="jCBHO14BRQy6ftBjEHN5-13" style="edgeStyle=orthogonalEdgeStyle;rounded=0;orthogonalLoop=1;jettySize=auto;html=1;entryX=0;entryY=0.5;entryDx=0;entryDy=0;" edge="1" parent="1" source="jCBHO14BRQy6ftBjEHN5-3" target="jCBHO14BRQy6ftBjEHN5-12">
          <mxGeometry relative="1" as="geometry">
            <Array as="points">
              <mxPoint x="-450" y="1305" />
              <mxPoint x="-450" y="1305" />
            </Array>
          </mxGeometry>
        </mxCell>
        <mxCell id="jCBHO14BRQy6ftBjEHN5-3" value="" style="line;strokeWidth=11;fillColor=none;align=left;verticalAlign=middle;spacingTop=-1;spacingLeft=3;spacingRight=3;rotatable=0;labelPosition=right;points=[];portConstraint=eastwest;direction=south;" vertex="1" parent="1">
          <mxGeometry x="-491" y="1160" width="25" height="230" as="geometry" />
        </mxCell>
        <mxCell id="jCBHO14BRQy6ftBjEHN5-11" style="edgeStyle=orthogonalEdgeStyle;rounded=0;orthogonalLoop=1;jettySize=auto;html=1;" edge="1" parent="1" source="jCBHO14BRQy6ftBjEHN5-6">
          <mxGeometry relative="1" as="geometry">
            <mxPoint x="-210" y="1215" as="targetPoint" />
          </mxGeometry>
        </mxCell>
        <mxCell id="jCBHO14BRQy6ftBjEHN5-6" value="wprowadzenie danych osobowych" style="rounded=1;arcSize=10;whiteSpace=wrap;html=1;align=center;" vertex="1" parent="1">
          <mxGeometry x="-400" y="1190" width="110" height="50" as="geometry" />
        </mxCell>
        <mxCell id="jCBHO14BRQy6ftBjEHN5-19" style="edgeStyle=orthogonalEdgeStyle;rounded=0;orthogonalLoop=1;jettySize=auto;html=1;" edge="1" parent="1" source="jCBHO14BRQy6ftBjEHN5-8" target="jCBHO14BRQy6ftBjEHN5-15">
          <mxGeometry relative="1" as="geometry" />
        </mxCell>
        <mxCell id="jCBHO14BRQy6ftBjEHN5-8" value="" style="line;strokeWidth=11;fillColor=none;align=left;verticalAlign=middle;spacingTop=-1;spacingLeft=3;spacingRight=3;rotatable=0;labelPosition=right;points=[];portConstraint=eastwest;direction=south;" vertex="1" parent="1">
          <mxGeometry x="-200" y="1160" width="25" height="230" as="geometry" />
        </mxCell>
        <mxCell id="jCBHO14BRQy6ftBjEHN5-14" style="edgeStyle=orthogonalEdgeStyle;rounded=0;orthogonalLoop=1;jettySize=auto;html=1;" edge="1" parent="1" source="jCBHO14BRQy6ftBjEHN5-12">
          <mxGeometry relative="1" as="geometry">
            <mxPoint x="-210" y="1305" as="targetPoint" />
          </mxGeometry>
        </mxCell>
        <mxCell id="jCBHO14BRQy6ftBjEHN5-12" value="przypisanie tymczasowego hasła" style="rounded=1;arcSize=10;whiteSpace=wrap;html=1;align=center;" vertex="1" parent="1">
          <mxGeometry x="-400" y="1280" width="110" height="50" as="geometry" />
        </mxCell>
        <mxCell id="jCBHO14BRQy6ftBjEHN5-17" style="edgeStyle=orthogonalEdgeStyle;rounded=0;orthogonalLoop=1;jettySize=auto;html=1;" edge="1" parent="1" source="jCBHO14BRQy6ftBjEHN5-15" target="jCBHO14BRQy6ftBjEHN5-16">
          <mxGeometry relative="1" as="geometry" />
        </mxCell>
        <mxCell id="jCBHO14BRQy6ftBjEHN5-18" value="walidacja udana" style="edgeLabel;html=1;align=center;verticalAlign=middle;resizable=0;points=[];" vertex="1" connectable="0" parent="jCBHO14BRQy6ftBjEHN5-17">
          <mxGeometry x="-0.2588" y="-1" relative="1" as="geometry">
            <mxPoint as="offset" />
          </mxGeometry>
        </mxCell>
        <mxCell id="jCBHO14BRQy6ftBjEHN5-20" style="edgeStyle=orthogonalEdgeStyle;rounded=0;orthogonalLoop=1;jettySize=auto;html=1;" edge="1" parent="1" source="jCBHO14BRQy6ftBjEHN5-15">
          <mxGeometry relative="1" as="geometry">
            <mxPoint x="-500" y="1340" as="targetPoint" />
            <Array as="points">
              <mxPoint x="-50" y="1450" />
              <mxPoint x="-629" y="1450" />
            </Array>
          </mxGeometry>
        </mxCell>
        <mxCell id="jCBHO14BRQy6ftBjEHN5-21" value="walidacja nieudana" style="edgeLabel;html=1;align=center;verticalAlign=middle;resizable=0;points=[];" vertex="1" connectable="0" parent="jCBHO14BRQy6ftBjEHN5-20">
          <mxGeometry x="-0.0614" y="-2" relative="1" as="geometry">
            <mxPoint as="offset" />
          </mxGeometry>
        </mxCell>
        <mxCell id="jCBHO14BRQy6ftBjEHN5-15" value="walidacja danych" style="shape=rhombus;perimeter=rhombusPerimeter;whiteSpace=wrap;html=1;align=center;" vertex="1" parent="1">
          <mxGeometry x="-110" y="1245" width="120" height="60" as="geometry" />
        </mxCell>
        <mxCell id="jCBHO14BRQy6ftBjEHN5-16" value="" style="ellipse;html=1;shape=endState;fillColor=#000000;strokeColor=#ff0000;" vertex="1" parent="1">
          <mxGeometry x="190" y="1260" width="30" height="30" as="geometry" />
        </mxCell>
        <mxCell id="jCBHO14BRQy6ftBjEHN5-22" value="" style="ellipse;html=1;shape=startState;fillColor=#000000;strokeColor=#ff0000;" vertex="1" parent="1">
          <mxGeometry x="-655" y="1630" width="30" height="30" as="geometry" />
        </mxCell>
        <mxCell id="jCBHO14BRQy6ftBjEHN5-23" value="" style="edgeStyle=orthogonalEdgeStyle;html=1;verticalAlign=bottom;endArrow=open;endSize=8;strokeColor=#ff0000;rounded=0;" edge="1" parent="1" source="jCBHO14BRQy6ftBjEHN5-22">
          <mxGeometry relative="1" as="geometry">
            <mxPoint x="-486" y="1644.86" as="targetPoint" />
            <mxPoint x="-619.9999999999866" y="1644.86" as="sourcePoint" />
            <Array as="points">
              <mxPoint x="-600" y="1645" />
            </Array>
          </mxGeometry>
        </mxCell>
        <mxCell id="jCBHO14BRQy6ftBjEHN5-30" style="edgeStyle=orthogonalEdgeStyle;rounded=0;orthogonalLoop=1;jettySize=auto;html=1;" edge="1" parent="1" source="jCBHO14BRQy6ftBjEHN5-24" target="jCBHO14BRQy6ftBjEHN5-25">
          <mxGeometry relative="1" as="geometry">
            <Array as="points">
              <mxPoint x="-440" y="1555" />
              <mxPoint x="-440" y="1555" />
            </Array>
          </mxGeometry>
        </mxCell>
        <mxCell id="jCBHO14BRQy6ftBjEHN5-31" style="edgeStyle=orthogonalEdgeStyle;rounded=0;orthogonalLoop=1;jettySize=auto;html=1;" edge="1" parent="1" source="jCBHO14BRQy6ftBjEHN5-24" target="jCBHO14BRQy6ftBjEHN5-26">
          <mxGeometry relative="1" as="geometry">
            <Array as="points">
              <mxPoint x="-450" y="1735" />
              <mxPoint x="-450" y="1735" />
            </Array>
          </mxGeometry>
        </mxCell>
        <mxCell id="jCBHO14BRQy6ftBjEHN5-24" value="" style="line;strokeWidth=11;fillColor=none;align=left;verticalAlign=middle;spacingTop=-1;spacingLeft=3;spacingRight=3;rotatable=0;labelPosition=right;points=[];portConstraint=eastwest;direction=south;" vertex="1" parent="1">
          <mxGeometry x="-491" y="1524" width="25" height="230" as="geometry" />
        </mxCell>
        <mxCell id="jCBHO14BRQy6ftBjEHN5-28" style="edgeStyle=orthogonalEdgeStyle;rounded=0;orthogonalLoop=1;jettySize=auto;html=1;" edge="1" parent="1" source="jCBHO14BRQy6ftBjEHN5-25">
          <mxGeometry relative="1" as="geometry">
            <mxPoint x="-200" y="1555" as="targetPoint" />
          </mxGeometry>
        </mxCell>
        <mxCell id="jCBHO14BRQy6ftBjEHN5-25" value="wybór uprawnienia" style="rounded=1;arcSize=10;whiteSpace=wrap;html=1;align=center;" vertex="1" parent="1">
          <mxGeometry x="-400" y="1530" width="110" height="50" as="geometry" />
        </mxCell>
        <mxCell id="jCBHO14BRQy6ftBjEHN5-29" style="edgeStyle=orthogonalEdgeStyle;rounded=0;orthogonalLoop=1;jettySize=auto;html=1;" edge="1" parent="1" source="jCBHO14BRQy6ftBjEHN5-26">
          <mxGeometry relative="1" as="geometry">
            <mxPoint x="-200" y="1735" as="targetPoint" />
          </mxGeometry>
        </mxCell>
        <mxCell id="jCBHO14BRQy6ftBjEHN5-26" value="wybór konta" style="rounded=1;arcSize=10;whiteSpace=wrap;html=1;align=center;" vertex="1" parent="1">
          <mxGeometry x="-400" y="1710" width="110" height="50" as="geometry" />
        </mxCell>
        <mxCell id="jCBHO14BRQy6ftBjEHN5-36" style="edgeStyle=orthogonalEdgeStyle;rounded=0;orthogonalLoop=1;jettySize=auto;html=1;entryX=0;entryY=0.5;entryDx=0;entryDy=0;fontSize=7;" edge="1" parent="1" source="jCBHO14BRQy6ftBjEHN5-27" target="jCBHO14BRQy6ftBjEHN5-32">
          <mxGeometry relative="1" as="geometry" />
        </mxCell>
        <mxCell id="jCBHO14BRQy6ftBjEHN5-27" value="" style="line;strokeWidth=11;fillColor=none;align=left;verticalAlign=middle;spacingTop=-1;spacingLeft=3;spacingRight=3;rotatable=0;labelPosition=right;points=[];portConstraint=eastwest;direction=south;" vertex="1" parent="1">
          <mxGeometry x="-195" y="1524" width="25" height="230" as="geometry" />
        </mxCell>
        <mxCell id="jCBHO14BRQy6ftBjEHN5-35" style="edgeStyle=orthogonalEdgeStyle;rounded=0;orthogonalLoop=1;jettySize=auto;html=1;entryX=0;entryY=0.5;entryDx=0;entryDy=0;fontSize=7;" edge="1" parent="1" source="jCBHO14BRQy6ftBjEHN5-32" target="jCBHO14BRQy6ftBjEHN5-34">
          <mxGeometry relative="1" as="geometry">
            <Array as="points">
              <mxPoint x="80" y="1639" />
              <mxPoint x="80" y="1639" />
            </Array>
          </mxGeometry>
        </mxCell>
        <mxCell id="jCBHO14BRQy6ftBjEHN5-37" value="tak" style="edgeLabel;html=1;align=center;verticalAlign=middle;resizable=0;points=[];fontSize=7;" vertex="1" connectable="0" parent="jCBHO14BRQy6ftBjEHN5-35">
          <mxGeometry x="0.1177" y="-1" relative="1" as="geometry">
            <mxPoint as="offset" />
          </mxGeometry>
        </mxCell>
        <mxCell id="jCBHO14BRQy6ftBjEHN5-41" style="edgeStyle=orthogonalEdgeStyle;rounded=0;orthogonalLoop=1;jettySize=auto;html=1;entryX=0.5;entryY=1;entryDx=0;entryDy=0;fontSize=7;" edge="1" parent="1" source="jCBHO14BRQy6ftBjEHN5-32" target="jCBHO14BRQy6ftBjEHN5-40">
          <mxGeometry relative="1" as="geometry" />
        </mxCell>
        <mxCell id="jCBHO14BRQy6ftBjEHN5-42" value="nie" style="edgeLabel;html=1;align=center;verticalAlign=middle;resizable=0;points=[];fontSize=7;" vertex="1" connectable="0" parent="jCBHO14BRQy6ftBjEHN5-41">
          <mxGeometry x="0.314" y="-1" relative="1" as="geometry">
            <mxPoint as="offset" />
          </mxGeometry>
        </mxCell>
        <mxCell id="jCBHO14BRQy6ftBjEHN5-32" value="&lt;font&gt;&lt;font style=&quot;font-size: 8px&quot;&gt;użytkownik posiada dane uprawnienie?&lt;/font&gt;&lt;br&gt;&lt;/font&gt;" style="shape=rhombus;perimeter=rhombusPerimeter;whiteSpace=wrap;html=1;align=center;" vertex="1" parent="1">
          <mxGeometry x="-125" y="1597.29" width="150" height="83.43" as="geometry" />
        </mxCell>
        <mxCell id="jCBHO14BRQy6ftBjEHN5-34" value="&lt;br&gt;&lt;br&gt;&lt;br&gt;&lt;br&gt;uprawnienie przypisane" style="ellipse;html=1;shape=endState;fillColor=#000000;strokeColor=#ff0000;" vertex="1" parent="1">
          <mxGeometry x="190" y="1624" width="30" height="30" as="geometry" />
        </mxCell>
        <mxCell id="jCBHO14BRQy6ftBjEHN5-40" value="&lt;br&gt;&lt;br&gt;&lt;br&gt;&lt;br&gt;uprawnienie nieprzypisane" style="ellipse;html=1;shape=endState;fillColor=#000000;strokeColor=#ff0000;" vertex="1" parent="1">
          <mxGeometry x="-65" y="1494" width="30" height="30" as="geometry" />
        </mxCell>
        <mxCell id="jCBHO14BRQy6ftBjEHN5-43" value="" style="ellipse;html=1;shape=startState;fillColor=#000000;strokeColor=#ff0000;" vertex="1" parent="1">
          <mxGeometry x="-655" y="2076" width="30" height="30" as="geometry" />
        </mxCell>
        <mxCell id="jCBHO14BRQy6ftBjEHN5-44" value="" style="edgeStyle=orthogonalEdgeStyle;html=1;verticalAlign=bottom;endArrow=open;endSize=8;strokeColor=#ff0000;rounded=0;" edge="1" parent="1" source="jCBHO14BRQy6ftBjEHN5-43">
          <mxGeometry relative="1" as="geometry">
            <mxPoint x="-486" y="2090.8599999999997" as="targetPoint" />
            <mxPoint x="-619.9999999999866" y="2090.8599999999997" as="sourcePoint" />
            <Array as="points">
              <mxPoint x="-600" y="2091" />
            </Array>
          </mxGeometry>
        </mxCell>
        <mxCell id="jCBHO14BRQy6ftBjEHN5-45" style="edgeStyle=orthogonalEdgeStyle;rounded=0;orthogonalLoop=1;jettySize=auto;html=1;" edge="1" parent="1" source="jCBHO14BRQy6ftBjEHN5-47" target="jCBHO14BRQy6ftBjEHN5-49">
          <mxGeometry relative="1" as="geometry">
            <Array as="points">
              <mxPoint x="-440" y="2001" />
              <mxPoint x="-440" y="2001" />
            </Array>
          </mxGeometry>
        </mxCell>
        <mxCell id="jCBHO14BRQy6ftBjEHN5-46" style="edgeStyle=orthogonalEdgeStyle;rounded=0;orthogonalLoop=1;jettySize=auto;html=1;" edge="1" parent="1" source="jCBHO14BRQy6ftBjEHN5-47" target="jCBHO14BRQy6ftBjEHN5-51">
          <mxGeometry relative="1" as="geometry">
            <Array as="points">
              <mxPoint x="-450" y="2181" />
              <mxPoint x="-450" y="2181" />
            </Array>
          </mxGeometry>
        </mxCell>
        <mxCell id="jCBHO14BRQy6ftBjEHN5-47" value="" style="line;strokeWidth=11;fillColor=none;align=left;verticalAlign=middle;spacingTop=-1;spacingLeft=3;spacingRight=3;rotatable=0;labelPosition=right;points=[];portConstraint=eastwest;direction=south;" vertex="1" parent="1">
          <mxGeometry x="-491" y="1970" width="25" height="230" as="geometry" />
        </mxCell>
        <mxCell id="jCBHO14BRQy6ftBjEHN5-48" style="edgeStyle=orthogonalEdgeStyle;rounded=0;orthogonalLoop=1;jettySize=auto;html=1;" edge="1" parent="1" source="jCBHO14BRQy6ftBjEHN5-49">
          <mxGeometry relative="1" as="geometry">
            <mxPoint x="-200" y="2001" as="targetPoint" />
          </mxGeometry>
        </mxCell>
        <mxCell id="jCBHO14BRQy6ftBjEHN5-49" value="podanie adresu placówki" style="rounded=1;arcSize=10;whiteSpace=wrap;html=1;align=center;" vertex="1" parent="1">
          <mxGeometry x="-400" y="1976" width="110" height="50" as="geometry" />
        </mxCell>
        <mxCell id="jCBHO14BRQy6ftBjEHN5-50" style="edgeStyle=orthogonalEdgeStyle;rounded=0;orthogonalLoop=1;jettySize=auto;html=1;" edge="1" parent="1" source="jCBHO14BRQy6ftBjEHN5-51">
          <mxGeometry relative="1" as="geometry">
            <mxPoint x="-200" y="2181" as="targetPoint" />
          </mxGeometry>
        </mxCell>
        <mxCell id="jCBHO14BRQy6ftBjEHN5-51" value="wybór dyrektora placówki" style="rounded=1;arcSize=10;whiteSpace=wrap;html=1;align=center;" vertex="1" parent="1">
          <mxGeometry x="-400" y="2156" width="110" height="50" as="geometry" />
        </mxCell>
        <mxCell id="jCBHO14BRQy6ftBjEHN5-52" style="edgeStyle=orthogonalEdgeStyle;rounded=0;orthogonalLoop=1;jettySize=auto;html=1;entryX=0;entryY=0.5;entryDx=0;entryDy=0;fontSize=7;" edge="1" parent="1" source="jCBHO14BRQy6ftBjEHN5-53" target="jCBHO14BRQy6ftBjEHN5-58">
          <mxGeometry relative="1" as="geometry" />
        </mxCell>
        <mxCell id="jCBHO14BRQy6ftBjEHN5-53" value="" style="line;strokeWidth=11;fillColor=none;align=left;verticalAlign=middle;spacingTop=-1;spacingLeft=3;spacingRight=3;rotatable=0;labelPosition=right;points=[];portConstraint=eastwest;direction=south;" vertex="1" parent="1">
          <mxGeometry x="-195" y="1970" width="25" height="230" as="geometry" />
        </mxCell>
        <mxCell id="jCBHO14BRQy6ftBjEHN5-54" style="edgeStyle=orthogonalEdgeStyle;rounded=0;orthogonalLoop=1;jettySize=auto;html=1;entryX=0;entryY=0.5;entryDx=0;entryDy=0;fontSize=7;" edge="1" parent="1" source="jCBHO14BRQy6ftBjEHN5-58" target="jCBHO14BRQy6ftBjEHN5-59">
          <mxGeometry relative="1" as="geometry">
            <Array as="points">
              <mxPoint x="80" y="2085" />
              <mxPoint x="80" y="2085" />
            </Array>
          </mxGeometry>
        </mxCell>
        <mxCell id="jCBHO14BRQy6ftBjEHN5-58" value="&lt;font style=&quot;font-size: 12px&quot;&gt;walidacja danych&lt;br&gt;&lt;/font&gt;" style="shape=rhombus;perimeter=rhombusPerimeter;whiteSpace=wrap;html=1;align=center;" vertex="1" parent="1">
          <mxGeometry x="-125" y="2043.29" width="150" height="83.43" as="geometry" />
        </mxCell>
        <mxCell id="jCBHO14BRQy6ftBjEHN5-59" value="&lt;br&gt;&lt;br&gt;&lt;br&gt;&lt;br&gt;" style="ellipse;html=1;shape=endState;fillColor=#000000;strokeColor=#ff0000;" vertex="1" parent="1">
          <mxGeometry x="190" y="2070" width="30" height="30" as="geometry" />
        </mxCell>
        <mxCell id="jCBHO14BRQy6ftBjEHN5-61" style="edgeStyle=orthogonalEdgeStyle;rounded=0;orthogonalLoop=1;jettySize=auto;html=1;exitX=0.5;exitY=1;exitDx=0;exitDy=0;" edge="1" parent="1" source="jCBHO14BRQy6ftBjEHN5-58" target="jCBHO14BRQy6ftBjEHN5-47">
          <mxGeometry relative="1" as="geometry">
            <mxPoint x="-55.5" y="2126.7200000000003" as="sourcePoint" />
            <mxPoint x="-505.5" y="2161.7200000000003" as="targetPoint" />
            <Array as="points">
              <mxPoint x="-50" y="2272" />
              <mxPoint x="-634" y="2272" />
              <mxPoint x="-634" y="2180" />
            </Array>
          </mxGeometry>
        </mxCell>
        <mxCell id="jCBHO14BRQy6ftBjEHN5-62" value="walidacja nieudana" style="edgeLabel;html=1;align=center;verticalAlign=middle;resizable=0;points=[];" vertex="1" connectable="0" parent="jCBHO14BRQy6ftBjEHN5-61">
          <mxGeometry x="-0.0614" y="-2" relative="1" as="geometry">
            <mxPoint as="offset" />
          </mxGeometry>
        </mxCell>
        <mxCell id="jCBHO14BRQy6ftBjEHN5-64" value="" style="ellipse;html=1;shape=startState;fillColor=#000000;strokeColor=#ff0000;" vertex="1" parent="1">
          <mxGeometry x="-655" y="2486" width="30" height="30" as="geometry" />
        </mxCell>
        <mxCell id="jCBHO14BRQy6ftBjEHN5-65" value="" style="edgeStyle=orthogonalEdgeStyle;html=1;verticalAlign=bottom;endArrow=open;endSize=8;strokeColor=#ff0000;rounded=0;entryX=0;entryY=0.5;entryDx=0;entryDy=0;" edge="1" parent="1" source="jCBHO14BRQy6ftBjEHN5-64" target="jCBHO14BRQy6ftBjEHN5-70">
          <mxGeometry relative="1" as="geometry">
            <mxPoint x="-420" y="2501" as="targetPoint" />
            <mxPoint x="-619.9999999999866" y="2500.8599999999997" as="sourcePoint" />
            <Array as="points" />
          </mxGeometry>
        </mxCell>
        <mxCell id="jCBHO14BRQy6ftBjEHN5-201" style="edgeStyle=orthogonalEdgeStyle;rounded=0;orthogonalLoop=1;jettySize=auto;html=1;entryX=0;entryY=0.5;entryDx=0;entryDy=0;fontSize=8;" edge="1" parent="1" source="jCBHO14BRQy6ftBjEHN5-70" target="jCBHO14BRQy6ftBjEHN5-76">
          <mxGeometry relative="1" as="geometry" />
        </mxCell>
        <mxCell id="jCBHO14BRQy6ftBjEHN5-70" value="podanie ID placówki" style="rounded=1;arcSize=19;whiteSpace=wrap;html=1;align=center;" vertex="1" parent="1">
          <mxGeometry x="-390" y="2476" width="110" height="50" as="geometry" />
        </mxCell>
        <mxCell id="jCBHO14BRQy6ftBjEHN5-81" style="edgeStyle=orthogonalEdgeStyle;rounded=0;orthogonalLoop=1;jettySize=auto;html=1;entryX=0.5;entryY=1;entryDx=0;entryDy=0;fontSize=8;" edge="1" parent="1" source="jCBHO14BRQy6ftBjEHN5-76" target="jCBHO14BRQy6ftBjEHN5-80">
          <mxGeometry relative="1" as="geometry" />
        </mxCell>
        <mxCell id="jCBHO14BRQy6ftBjEHN5-83" value="nie" style="edgeLabel;html=1;align=center;verticalAlign=middle;resizable=0;points=[];fontSize=8;" vertex="1" connectable="0" parent="jCBHO14BRQy6ftBjEHN5-81">
          <mxGeometry x="0.3954" relative="1" as="geometry">
            <mxPoint as="offset" />
          </mxGeometry>
        </mxCell>
        <mxCell id="jCBHO14BRQy6ftBjEHN5-202" style="edgeStyle=orthogonalEdgeStyle;rounded=0;orthogonalLoop=1;jettySize=auto;html=1;fontSize=8;" edge="1" parent="1" source="jCBHO14BRQy6ftBjEHN5-76" target="jCBHO14BRQy6ftBjEHN5-77">
          <mxGeometry relative="1" as="geometry" />
        </mxCell>
        <mxCell id="jCBHO14BRQy6ftBjEHN5-203" value="tak" style="edgeLabel;html=1;align=center;verticalAlign=middle;resizable=0;points=[];fontSize=8;" vertex="1" connectable="0" parent="jCBHO14BRQy6ftBjEHN5-202">
          <mxGeometry x="0.2727" y="-4" relative="1" as="geometry">
            <mxPoint as="offset" />
          </mxGeometry>
        </mxCell>
        <mxCell id="jCBHO14BRQy6ftBjEHN5-76" value="czy placówke można usunąć?" style="shape=rhombus;perimeter=rhombusPerimeter;whiteSpace=wrap;html=1;align=center;" vertex="1" parent="1">
          <mxGeometry x="-125" y="2459.2799999999997" width="150" height="83.43" as="geometry" />
        </mxCell>
        <mxCell id="jCBHO14BRQy6ftBjEHN5-77" value="&lt;br&gt;&lt;br&gt;&lt;br&gt;&lt;br&gt;" style="ellipse;html=1;shape=endState;fillColor=#000000;strokeColor=#ff0000;" vertex="1" parent="1">
          <mxGeometry x="190" y="2486" width="30" height="30" as="geometry" />
        </mxCell>
        <mxCell id="jCBHO14BRQy6ftBjEHN5-80" value="&lt;br&gt;&lt;br&gt;&lt;br&gt;&lt;br&gt;" style="ellipse;html=1;shape=endState;fillColor=#000000;strokeColor=#ff0000;" vertex="1" parent="1">
          <mxGeometry x="-65" y="2360" width="30" height="30" as="geometry" />
        </mxCell>
        <mxCell id="jCBHO14BRQy6ftBjEHN5-116" value="" style="ellipse;html=1;shape=startState;fillColor=#000000;strokeColor=#ff0000;" vertex="1" parent="1">
          <mxGeometry x="-655" y="2860" width="30" height="30" as="geometry" />
        </mxCell>
        <mxCell id="jCBHO14BRQy6ftBjEHN5-117" value="" style="edgeStyle=orthogonalEdgeStyle;html=1;verticalAlign=bottom;endArrow=open;endSize=8;strokeColor=#ff0000;rounded=0;exitX=1;exitY=0.5;exitDx=0;exitDy=0;entryX=0;entryY=0.5;entryDx=0;entryDy=0;" edge="1" parent="1" source="jCBHO14BRQy6ftBjEHN5-116" target="jCBHO14BRQy6ftBjEHN5-122">
          <mxGeometry relative="1" as="geometry">
            <mxPoint x="-491" y="2875" as="targetPoint" />
            <mxPoint x="-615" y="2874.71" as="sourcePoint" />
            <Array as="points" />
          </mxGeometry>
        </mxCell>
        <mxCell id="jCBHO14BRQy6ftBjEHN5-200" style="edgeStyle=orthogonalEdgeStyle;rounded=0;orthogonalLoop=1;jettySize=auto;html=1;fontSize=8;" edge="1" parent="1" source="jCBHO14BRQy6ftBjEHN5-122" target="jCBHO14BRQy6ftBjEHN5-131">
          <mxGeometry relative="1" as="geometry" />
        </mxCell>
        <mxCell id="jCBHO14BRQy6ftBjEHN5-122" value="wybór modułu do wyłączenia" style="rounded=1;arcSize=10;whiteSpace=wrap;html=1;align=center;" vertex="1" parent="1">
          <mxGeometry x="-406" y="2850" width="110" height="50" as="geometry" />
        </mxCell>
        <mxCell id="jCBHO14BRQy6ftBjEHN5-123" style="edgeStyle=orthogonalEdgeStyle;rounded=0;orthogonalLoop=1;jettySize=auto;html=1;" edge="1" parent="1" target="jCBHO14BRQy6ftBjEHN5-131">
          <mxGeometry relative="1" as="geometry">
            <mxPoint x="-175" y="2875" as="sourcePoint" />
          </mxGeometry>
        </mxCell>
        <mxCell id="jCBHO14BRQy6ftBjEHN5-127" style="edgeStyle=orthogonalEdgeStyle;rounded=0;orthogonalLoop=1;jettySize=auto;html=1;" edge="1" parent="1" source="jCBHO14BRQy6ftBjEHN5-131" target="jCBHO14BRQy6ftBjEHN5-132">
          <mxGeometry relative="1" as="geometry" />
        </mxCell>
        <mxCell id="jCBHO14BRQy6ftBjEHN5-128" value="tak" style="edgeLabel;html=1;align=center;verticalAlign=middle;resizable=0;points=[];" vertex="1" connectable="0" parent="jCBHO14BRQy6ftBjEHN5-127">
          <mxGeometry x="-0.2588" y="-1" relative="1" as="geometry">
            <mxPoint as="offset" />
          </mxGeometry>
        </mxCell>
        <mxCell id="jCBHO14BRQy6ftBjEHN5-184" style="edgeStyle=orthogonalEdgeStyle;rounded=0;orthogonalLoop=1;jettySize=auto;html=1;entryX=0.5;entryY=1;entryDx=0;entryDy=0;fontSize=8;" edge="1" parent="1" source="jCBHO14BRQy6ftBjEHN5-131" target="jCBHO14BRQy6ftBjEHN5-183">
          <mxGeometry relative="1" as="geometry">
            <Array as="points">
              <mxPoint x="-50" y="2800" />
              <mxPoint x="-50" y="2800" />
            </Array>
          </mxGeometry>
        </mxCell>
        <mxCell id="jCBHO14BRQy6ftBjEHN5-185" value="nie" style="edgeLabel;html=1;align=center;verticalAlign=middle;resizable=0;points=[];fontSize=8;" vertex="1" connectable="0" parent="jCBHO14BRQy6ftBjEHN5-184">
          <mxGeometry x="0.2191" y="1" relative="1" as="geometry">
            <mxPoint as="offset" />
          </mxGeometry>
        </mxCell>
        <mxCell id="jCBHO14BRQy6ftBjEHN5-131" value="moduł włączony?" style="shape=rhombus;perimeter=rhombusPerimeter;whiteSpace=wrap;html=1;align=center;" vertex="1" parent="1">
          <mxGeometry x="-110" y="2845" width="120" height="60" as="geometry" />
        </mxCell>
        <mxCell id="jCBHO14BRQy6ftBjEHN5-132" value="" style="ellipse;html=1;shape=endState;fillColor=#000000;strokeColor=#ff0000;" vertex="1" parent="1">
          <mxGeometry x="190" y="2860" width="30" height="30" as="geometry" />
        </mxCell>
        <mxCell id="jCBHO14BRQy6ftBjEHN5-133" value="" style="ellipse;html=1;shape=startState;fillColor=#000000;strokeColor=#ff0000;" vertex="1" parent="1">
          <mxGeometry x="-655" y="3400" width="30" height="30" as="geometry" />
        </mxCell>
        <mxCell id="jCBHO14BRQy6ftBjEHN5-134" value="" style="edgeStyle=orthogonalEdgeStyle;html=1;verticalAlign=bottom;endArrow=open;endSize=8;strokeColor=#ff0000;rounded=0;exitX=1;exitY=0.5;exitDx=0;exitDy=0;entryX=0;entryY=0.5;entryDx=0;entryDy=0;" edge="1" parent="1" source="jCBHO14BRQy6ftBjEHN5-133" target="jCBHO14BRQy6ftBjEHN5-139">
          <mxGeometry relative="1" as="geometry">
            <mxPoint x="-491" y="3415" as="targetPoint" />
            <mxPoint x="-615" y="3414.71" as="sourcePoint" />
            <Array as="points" />
          </mxGeometry>
        </mxCell>
        <mxCell id="jCBHO14BRQy6ftBjEHN5-199" style="edgeStyle=orthogonalEdgeStyle;rounded=0;orthogonalLoop=1;jettySize=auto;html=1;fontSize=8;entryX=0;entryY=0.5;entryDx=0;entryDy=0;" edge="1" parent="1" source="jCBHO14BRQy6ftBjEHN5-139" target="jCBHO14BRQy6ftBjEHN5-149">
          <mxGeometry relative="1" as="geometry">
            <mxPoint x="-170" y="3415" as="targetPoint" />
          </mxGeometry>
        </mxCell>
        <mxCell id="jCBHO14BRQy6ftBjEHN5-139" value="wprowadzenie danych konta" style="rounded=1;arcSize=10;whiteSpace=wrap;html=1;align=center;" vertex="1" parent="1">
          <mxGeometry x="-406" y="3390" width="110" height="50" as="geometry" />
        </mxCell>
        <mxCell id="jCBHO14BRQy6ftBjEHN5-149" value="" style="ellipse;html=1;shape=endState;fillColor=#000000;strokeColor=#ff0000;" vertex="1" parent="1">
          <mxGeometry x="190" y="3400" width="30" height="30" as="geometry" />
        </mxCell>
        <mxCell id="jCBHO14BRQy6ftBjEHN5-183" value="" style="ellipse;html=1;shape=endState;fillColor=#000000;strokeColor=#ff0000;" vertex="1" parent="1">
          <mxGeometry x="-65" y="2750" width="30" height="30" as="geometry" />
        </mxCell>
        <mxCell id="jCBHO14BRQy6ftBjEHN5-186" value="Zapomnienie użytkownika systemu" style="text;html=1;align=center;verticalAlign=middle;resizable=0;points=[];autosize=1;strokeColor=none;fillColor=none;fontSize=8;" vertex="1" parent="1">
          <mxGeometry x="-660" y="3240" width="140" height="20" as="geometry" />
        </mxCell>
        <mxCell id="jCBHO14BRQy6ftBjEHN5-187" value="Administrator" style="text;html=1;align=center;verticalAlign=middle;resizable=0;points=[];autosize=1;strokeColor=none;fillColor=none;fontSize=8;" vertex="1" parent="1">
          <mxGeometry x="95" y="3240" width="60" height="20" as="geometry" />
        </mxCell>
        <mxCell id="jCBHO14BRQy6ftBjEHN5-188" value="Administrator" style="text;html=1;align=center;verticalAlign=middle;resizable=0;points=[];autosize=1;strokeColor=none;fillColor=none;fontSize=8;" vertex="1" parent="1">
          <mxGeometry x="95" y="2710" width="60" height="20" as="geometry" />
        </mxCell>
        <mxCell id="jCBHO14BRQy6ftBjEHN5-189" value="Administrator" style="text;html=1;align=center;verticalAlign=middle;resizable=0;points=[];autosize=1;strokeColor=none;fillColor=none;fontSize=8;" vertex="1" parent="1">
          <mxGeometry x="95" y="2360" width="60" height="20" as="geometry" />
        </mxCell>
        <mxCell id="jCBHO14BRQy6ftBjEHN5-190" value="Administrator" style="text;html=1;align=center;verticalAlign=middle;resizable=0;points=[];autosize=1;strokeColor=none;fillColor=none;fontSize=8;" vertex="1" parent="1">
          <mxGeometry x="95" y="1956" width="60" height="20" as="geometry" />
        </mxCell>
        <mxCell id="jCBHO14BRQy6ftBjEHN5-191" value="Administrator" style="text;html=1;align=center;verticalAlign=middle;resizable=0;points=[];autosize=1;strokeColor=none;fillColor=none;fontSize=8;" vertex="1" parent="1">
          <mxGeometry x="95" y="1490" width="60" height="20" as="geometry" />
        </mxCell>
        <mxCell id="jCBHO14BRQy6ftBjEHN5-192" value="Administrator" style="text;html=1;align=center;verticalAlign=middle;resizable=0;points=[];autosize=1;strokeColor=none;fillColor=none;fontSize=8;" vertex="1" parent="1">
          <mxGeometry x="95" y="1140" width="60" height="20" as="geometry" />
        </mxCell>
        <mxCell id="jCBHO14BRQy6ftBjEHN5-193" value="Przypisanie uprawnienia" style="text;html=1;align=center;verticalAlign=middle;resizable=0;points=[];autosize=1;strokeColor=none;fillColor=none;fontSize=8;" vertex="1" parent="1">
          <mxGeometry x="-660" y="1490" width="100" height="20" as="geometry" />
        </mxCell>
        <mxCell id="jCBHO14BRQy6ftBjEHN5-194" value="Tworzenie konta" style="text;html=1;align=center;verticalAlign=middle;resizable=0;points=[];autosize=1;strokeColor=none;fillColor=none;fontSize=8;" vertex="1" parent="1">
          <mxGeometry x="-640" y="1140" width="70" height="20" as="geometry" />
        </mxCell>
        <mxCell id="jCBHO14BRQy6ftBjEHN5-195" value="Tworzenie placówki" style="text;html=1;align=center;verticalAlign=middle;resizable=0;points=[];autosize=1;strokeColor=none;fillColor=none;fontSize=8;" vertex="1" parent="1">
          <mxGeometry x="-645" y="1950" width="80" height="20" as="geometry" />
        </mxCell>
        <mxCell id="jCBHO14BRQy6ftBjEHN5-196" value="Usunięcie placówki" style="text;html=1;align=center;verticalAlign=middle;resizable=0;points=[];autosize=1;strokeColor=none;fillColor=none;fontSize=8;" vertex="1" parent="1">
          <mxGeometry x="-655" y="2360" width="80" height="20" as="geometry" />
        </mxCell>
        <mxCell id="jCBHO14BRQy6ftBjEHN5-197" value="Wyłączanie modułów aplikacji" style="text;html=1;align=center;verticalAlign=middle;resizable=0;points=[];autosize=1;strokeColor=none;fillColor=none;fontSize=8;" vertex="1" parent="1">
          <mxGeometry x="-670" y="2710" width="120" height="20" as="geometry" />
        </mxCell>
      </root>
    </mxGraphModel>
  </diagram>
</mxfile>
